<?xml version="1.0" encoding="UTF-8" standalone="no"?>
<svg width="121px" height="7px" viewBox="0 0 121 7" version="1.1" xmlns="http://www.w3.org/2000/svg" xmlns:xlink="http://www.w3.org/1999/xlink">
    <g stroke="none" stroke-width="1" fill="none" fill-rule="evenodd">
        <path d="M0.568,1.72 L56.776,1.72 C60.04,1.72 60.04,3.976 60.04,5.32 L60.04,6.952 L60.856,6.952 L60.856,5.32 C60.856,3.976 60.904,1.72 64.168,1.72 L120.328,1.72 L120.328,0.472 L114.52,0.472 C107.032,0.472 70.744,0.04 62.728,0.04 C61.384,0.04 60.76,0.904 60.52,1.576 L60.376,1.576 C60.136,0.904 59.512,0.04 58.168,0.04 C50.152,0.04 13.912,0.472 6.424,0.472 L0.568,0.472 L0.568,1.72 Z" id="-1" fill="#000000"></path>
    </g>
</svg>